<?xml version="1.0" encoding="utf-8"?>
<!-- Generator: Adobe Illustrator 16.0.0, SVG Export Plug-In . SVG Version: 6.00 Build 0)  -->
<!DOCTYPE svg PUBLIC "-//W3C//DTD SVG 1.1//EN" "http://www.w3.org/Graphics/SVG/1.1/DTD/svg11.dtd">
<svg version="1.1" id="Layer_1" xmlns="http://www.w3.org/2000/svg" xmlns:xlink="http://www.w3.org/1999/xlink" x="0px" y="0px" viewBox="-461.264 -49.723 1088.735 280.679"
	 enable-background="new -461.264 -49.723 1088.735 280.679" xml:space="preserve">
	 <style>
	 	path { fill: #FFF };
	 </style>
<g>
	<path fill="#231F20" d="M-387.984,27.668c5.768-12.602,11.39-25.546,17.586-38.209c4.677-9.558,13.72-10.66,21.151-3.021
		c6.553,6.735,10.436,15.075,12.987,23.902c3.965,13.715,7.349,27.597,11.16,42.097c0.801-2.672,1.591-4.985,2.188-7.348
		c4.405-17.439,9.344-34.665,17.797-50.712c2.52-4.782,5.914-6.977,11.172-6.48c5.365,0.508,9.323,3.114,10.405,8.506
		c2.286,11.394,4.225,22.857,6.235,34.305c0.573,3.266,0.901,6.574,1.408,10.351c8.277-1.76,13.8-6.929,16.529-13.921
		c3.9-9.993,6.668-20.466,9.37-30.875c1.579-6.083,2.056-12.449,3.09-18.677c0.952-5.736,4.339-8.482,10.411-8.565
		c6.301-0.086,9.698,2.283,10.777,7.988c1.974,10.438,3.186,21.06,5.823,31.319c1.536,5.972,4.594,11.821,8.096,16.955
		c4.928,7.224,9.591,7.552,16.287,1.974c3.429-2.855,6.311-6.369,9.422-9.604c8.649-8.989,11.358-19.592,11.215-32.085
		c-0.106-9.235,3.139-18.536,5.126-27.758c1.049-4.866,4.632-7.155,9.412-7.504c4.859-0.354,9.83,2.556,11.771,6.905
		c4.656,10.436,3.774,21.105,1.103,31.812c-0.321,1.285-0.559,2.683-1.243,3.771c-6.54,10.408-4.245,21.311-1.925,32.221
		c0.897,4.219,1.855,8.425,2.847,12.913c0.67-0.186,1.348-0.196,1.797-0.521c14.827-10.747,29.688-21.45,44.363-32.4
		c1.633-1.218,2.081-3.944,3.284-5.841c1.269-1.999,2.378-4.65,4.269-5.599c5.479-2.748,11.185-5.216,17.048-6.969
		c5.116-1.53,9.962,0.475,13.681,4.157c3.077,3.048,1.831,6.089-1.28,8.464c-13.495,10.299-26.95,20.651-40.547,30.816
		c-11.73,8.771-23.614,17.337-35.475,25.935c-2.322,1.684-3.193,3.286-2.842,6.551c2.576,23.903,2.106,47.569-7.693,70.137
		c-4.745,10.93-10.669,21.095-19.86,28.996c-6.846,5.885-14.61,8.941-23.813,8.352c-9.872-0.633-18.986-3.359-27.086-9.035
		c-11.278-7.902-15.264-19.854-11.501-33.937c3.551-13.29,11.211-24.298,20.877-33.541c13.58-12.986,27.993-25.107,42.214-37.409
		c2.716-2.35,3.815-4.288,2.774-8.018c-1.509-5.404-2.11-11.062-3.281-17.635c-10.103,10.013-20.593,17.694-34.874,16.503
		c-14.826-1.236-23.086-11.224-29.932-23.642c-6.932,17.655-16.53,31.884-37.792,34.121c1.185,6.858,2.173,13.521,3.521,20.11
		c1.132,5.53,2.575,11.005,4.078,16.449c1.784,6.463,0.521,9.749-4.779,11.607c-6.662,2.338-13.45,0.043-14.975-5.769
		c-2.738-10.438-5.213-20.97-7.167-31.577c-2.135-11.588-3.556-23.308-6.104-35.133c-2.378,9.649-4.694,19.314-7.148,28.944
		c-2.585,10.141-5.383,20.227-7.926,30.377c-1.32,5.271-4.58,7.939-9.877,8.239c-5.572,0.315-10.246-2.144-11.729-7.402
		c-4.682-16.611-8.932-33.345-13.311-50.042c-2.36-8.998-4.613-18.025-6.981-27.021c-0.448-1.702-1.21-3.322-1.827-4.98
		c-0.513-0.089-1.026-0.179-1.539-0.268c-3.975,11.841-8.381,23.558-11.829,35.551c-6,20.871-9.357,42.192-9.059,64.006
		c0.083,6.093-3.336,9.267-9.686,9.453c-6.717,0.196-10.841-2.797-11.2-8.56c-1.078-17.276-1.59-34.601-3.102-51.837
		c-1.688-19.278-5.41-38.189-13.813-55.869c-1.059-2.226-2.257-4.385-3.688-7.151c-6.543,17.905-10.661,35.683-13.534,53.769
		c-3.77,23.729-5.363,47.62-5.035,71.639c0.056,4.133-0.807,7.746-4.979,9.449c-4.74,1.935-9.573,2-13.67-1.414
		c-1.344-1.119-2.42-3.396-2.433-5.151c-0.375-51.155,5.219-101.313,25.637-148.887c3.958-9.22,13.688-10.878,20.516-3.462
		c13.296,14.443,20.924,31.848,25.863,50.597C-388.775,24.806-388.295,26.523-387.984,27.668z M-164.175,75.806
		c-15.742,13.593-31.583,26.848-43.118,44.206c-2.258,3.398-3.804,7.393-5.063,11.309c-2.52,7.83,0.961,16.584,7.832,20.779
		c6.268,3.826,12.785,2.709,19.469-3.384c1.228-1.12,2.476-2.258,3.493-3.562C-165.576,124.693-161.914,101.1-164.175,75.806z"/>
	<path fill="#231F20" d="M311.254,156.802c1.258-8.334,2.564-16.659,3.764-25.001c2.77-19.266,5.418-38.549,8.346-57.79
		c0.248-1.625,2.191-4.249,3.396-4.277c13.297-0.308,26.604-0.193,40.801-0.193c-1.1,8.336-2.066,16.168-3.176,23.979
		c-4.494,31.619-9.031,63.231-13.559,94.846c-1.648,11.522-3.199,23.063-5.104,34.544c-0.225,1.348-2.396,3.357-3.699,3.387
		c-12.16,0.258-24.334,0.311-36.49-0.04c-1.686-0.049-3.857-2.284-4.861-4.046c-15.891-27.915-31.627-55.919-47.4-83.902
		c-1.356-2.408-2.729-4.812-5.115-7.049c-1.377,9.575-2.762,19.149-4.125,28.727c-2.932,20.58-5.928,41.15-8.706,61.752
		c-0.472,3.496-1.698,4.857-5.33,4.795c-10.997-0.19-21.999-0.119-32.999-0.04c-3.534,0.024-4.909-0.704-4.309-4.923
		c5.979-41.992,11.683-84.024,17.48-126.043c1-7.25,2.241-14.471,3.049-21.74c0.389-3.507,2.069-4.352,5.264-4.322
		c12.666,0.114,25.336-0.105,37.994,0.209c1.961,0.048,4.674,1.765,5.678,3.498c15.002,25.934,29.773,51.998,44.607,78.028
		c1.117,1.962,2.291,3.893,3.439,5.839C310.551,156.958,310.902,156.88,311.254,156.802z"/>
	<path fill="#231F20" d="M184.914,226.464c-5.083,0-9.688,0.001-14.289,0c-7.329,0-14.666-0.19-21.984,0.08
		c-3.593,0.132-4.935-1.276-5.639-4.601c-1.376-6.498-3.311-12.877-4.686-19.375c-0.561-2.646-1.611-3.558-4.293-3.541
		c-15.99,0.096-31.985-0.105-47.969,0.226c-2.014,0.042-4.775,2.188-5.812,4.104c-3.393,6.276-5.997,12.978-9.259,19.334
		c-0.822,1.601-2.949,3.564-4.509,3.594c-14.152,0.256-28.313,0.123-42.47,0.078c-0.47-0.002-0.939-0.287-2.08-0.658
		c1.268-2.732,2.426-5.396,3.717-7.994c23.751-47.811,47.55-95.596,71.206-143.452c1.694-3.427,3.561-4.915,7.543-4.844
		c14.153,0.254,28.316,0.189,42.475,0.032c3.56-0.039,5.303,0.851,6.104,4.678c10.33,49.26,20.838,98.482,31.284,147.718
		C184.518,223.085,184.618,224.359,184.914,226.464z M121.165,117.264c-0.351,0.034-0.7,0.069-1.05,0.104
		c-6.827,15.544-13.655,31.088-20.607,46.914c11.086,0,21.266,0,32.068,0C128.023,148.234,124.594,132.748,121.165,117.264z"/>
	<path fill="#231F20" d="M521.17,226.466c-3.725,0-6.658,0-9.596,0c-9.666-0.002-19.334-0.137-28.996,0.063
		c-3.686,0.076-5.814-0.999-7.018-4.687c-2.008-6.161-4.598-12.131-6.729-18.256c-1.012-2.909-2.514-4.218-5.783-4.187
		c-15.83,0.149-31.664,0.147-47.494,0.004c-3.285-0.03-4.699,1.354-5.744,4.236c-2.318,6.406-4.766,12.783-7.563,18.991
		c-0.727,1.614-2.908,3.619-4.461,3.651c-12.656,0.259-25.32,0.098-37.982,0.029c-0.455-0.002-0.906-0.363-1.953-0.813
		c1.508-4.156,2.951-8.339,4.535-12.466c17.59-45.8,35.271-91.563,52.701-137.422c1.775-4.672,4.1-6.379,9.082-6.214
		c10.986,0.364,21.994,0.203,32.992,0.06c3.443-0.044,5.473,0.967,6.766,4.41c18.625,49.664,37.371,99.284,56.08,148.917
		C520.291,223.539,520.496,224.323,521.17,226.466z M439.537,119.646c-5.689,16.639-10.98,32.11-16.406,47.973
		c11.113,0,21.428,0,32.416,0C450.23,151.691,445.105,136.33,439.537,119.646z"/>
	<path fill="#231F20" d="M30.339,115.145c-2.573-1.496-4.114-2.367-5.632-3.278c-18.484-11.104-37.935-15.317-58.584-6.994
		c-17.024,6.862-25.208,20.608-26.911,38.305c-1.596,16.585,3.376,30.894,17.851,40.202c13.378,8.604,28.222,9.166,43.275,5.014
		c5.845-1.611,11.518-3.849,18.277-6.143c-1.395,8.422-2.624,16.047-3.931,23.659c-0.814,4.748-1.5,9.542-2.751,14.179
		c-0.479,1.779-2.05,4.01-3.663,4.628c-28.972,11.097-75.673,10.233-100.961-26.317c-16.356-23.64-18.232-49.834-10.627-76.912
		c12.371-44.04,53.253-65.764,97.717-60.793c13.652,1.526,26.729,5.147,38.703,12.224c3.421,2.021,4.849,4.208,3.89,8.466
		C34.56,92.181,32.671,103.104,30.339,115.145z"/>
	<path fill="#231F20" d="M534.744,148.045c0-24.146,0.117-48.295-0.098-72.439c-0.043-4.887,1.58-6.312,6.322-6.192
		c11.316,0.285,22.652,0.331,33.967-0.018c5.182-0.16,6.434,1.697,6.408,6.621c-0.186,35.137-0.008,70.276-0.209,105.413
		c-0.025,4.689,1.34,5.965,5.904,5.848c11.648-0.299,23.314,0.048,34.969-0.178c4.176-0.08,5.559,1.353,5.459,5.479
		c-0.23,9.485-0.246,18.985-0.008,28.473c0.104,4.128-1.236,5.515-5.416,5.491c-27.311-0.146-54.621-0.145-81.934-0.007
		c-4.193,0.021-5.455-1.487-5.434-5.55C534.811,196.673,534.742,172.357,534.744,148.045z"/>
</g>
</svg>
